<svg id="Layer_1" data-name="Layer 1" xmlns="http://www.w3.org/2000/svg" viewBox="0 0 53 60.33"><defs><style>.cls-1,.cls-5{fill:#fff;}.cls-1,.cls-2,.cls-3{stroke:#1d1d1b;}.cls-1,.cls-2,.cls-3,.cls-4{stroke-miterlimit:10;}.cls-1{stroke-width:3px;}.cls-2,.cls-4{fill:none;}.cls-2,.cls-3{stroke-width:4px;}.cls-3{fill:#1d1d1b;}.cls-4{stroke:#fff;}</style></defs><circle class="cls-1" cx="26.5" cy="33.83" r="25"/><line class="cls-2" x1="26.5" y1="9.48" x2="26.5" y2="2"/><line class="cls-2" x1="22.5" y1="2" x2="30.5" y2="2"/><line class="cls-2" x1="9.25" y1="16.65" x2="5.37" y2="13.05"/><line class="cls-2" x1="2.46" y1="15.45" x2="7.74" y2="10.17"/><circle class="cls-3" cx="26.5" cy="34.12" r="18.5"/><line class="cls-4" x1="5.95" y1="34.12" x2="26.5" y2="34.12"/><line class="cls-4" x1="26.5" y1="13.5" x2="26.5" y2="34.63"/><path class="cls-5" d="M95.1,77.85c-.35,3.47-1.7,7.18-.79,10.9.68,2.74,4.94,2.16,4.92-.66a16.41,16.41,0,0,1,.84-5.5l-4.91-.66q-.42,6.43-.27,12.88a2.55,2.55,0,0,0,2.5,2.5,2.53,2.53,0,0,0,2.5-2.5q-.15-6.45.27-12.88A2.48,2.48,0,0,0,98,79.47a2.51,2.51,0,0,0-2.74,1.79,21.39,21.39,0,0,0-1,6.83l4.91-.67a10.44,10.44,0,0,1,.06-4.2c.33-1.79.71-3.56.9-5.37a2.52,2.52,0,0,0-2.5-2.5,2.55,2.55,0,0,0-2.5,2.5Z" transform="translate(-73.5 -64.73)"/><path class="cls-5" d="M94.76,94.55a5.92,5.92,0,0,0,0,1.19,8.92,8.92,0,0,0,.36,1.78,1.78,1.78,0,0,0,.44.85,1.93,1.93,0,0,0,.71.65,1.78,1.78,0,0,0,.92.29,1.89,1.89,0,0,0,1,0l.6-.25a2.76,2.76,0,0,0,.9-.9l.25-.6a2.5,2.5,0,0,0,0-1.33,5.77,5.77,0,0,1-.26-1.09l.09.66a5.45,5.45,0,0,1,0-1.21,2.45,2.45,0,0,0-1.54-2.29,2,2,0,0,0-1-.21l-.67.09a2.5,2.5,0,0,0-1.1.64l-.39.51a2.43,2.43,0,0,0-.34,1.26Z" transform="translate(-73.5 -64.73)"/><path class="cls-5" d="M95.24,94.12c.27,0-.5,0-.6,0h-.85c-.61,0-1.22-.08-1.84-.14-1.18-.12-2.36-.29-3.55-.35a45.39,45.39,0,0,0-7.46.48,2.55,2.55,0,0,0-2.5,2.5c0,1.22,1.11,2.66,2.5,2.5a42.8,42.8,0,0,1,7.75-.46c1.24.07,2.46.26,3.69.37a17.29,17.29,0,0,0,4.19-.11,2.49,2.49,0,0,0,1.74-3.07,2.58,2.58,0,0,0-3.07-1.75Z" transform="translate(-73.5 -64.73)"/><path class="cls-5" d="M82.76,95.24l0,.61c.07-.26.09-.31.05-.16s.16-.21.19-.26c.24-.36.52-.71.78-1.05l1.65-2.2c1-1.39,2.06-2.7,3.18-4.08a39,39,0,0,1,3.13-3.54c.28-.27.57-.52.87-.78s0,0,.2-.16l.41-.29c.32-.21.65-.4,1-.58.14-.08.3-.15.45-.22-.37.16.36-.11.36-.11a2.5,2.5,0,0,0-1.33-4.82c-3.89,1.28-6.51,4.35-9,7.44-1.37,1.72-2.71,3.47-4,5.22S77.38,94,77.94,96.57A2.52,2.52,0,0,0,81,98.32a2.57,2.57,0,0,0,1.74-3.08Z" transform="translate(-73.5 -64.73)"/><path class="cls-5" d="M91.89,80.34a12,12,0,0,1-.73,2.11c.16-.3.08-.17,0,.06l-.22.46c-.17.33-.35.65-.54,1s-.4.63-.61.93.16-.16-.05,0-.21.26-.33.38a14.59,14.59,0,0,1-1.51,1.43,33.06,33.06,0,0,0-3,2.58,6.93,6.93,0,0,0-1.63,2.38,2.89,2.89,0,0,0,1.24,3.47A2.5,2.5,0,1,0,87,90.85l-.1-.06.9.9L88,93.15q-.26.55-.09.27l.11-.15c.11-.15.07-.1-.11.14,0-.13.46-.54.55-.63a16.35,16.35,0,0,1,1.3-1.2c.94-.79,1.92-1.52,2.79-2.39a17.48,17.48,0,0,0,4.12-7.52A2.53,2.53,0,0,0,95,78.59a2.55,2.55,0,0,0-3.08,1.75Z" transform="translate(-73.5 -64.73)"/><path class="cls-5" d="M86.36,95.42a18.14,18.14,0,0,0,3.1-.55A7.76,7.76,0,0,0,92.63,93l.46-.45c.1-.1.38-.46.52-.49,0,0-.47.34-.19.15l.26-.17.54-.33c.34-.2.68-.4,1-.63a6.86,6.86,0,0,0,1.58-1.6H92.48l.07.12-.26-.6a1.77,1.77,0,0,1,.12.37l-.09-.67a3,3,0,0,1,0,.52l.09-.66a12.33,12.33,0,0,1-.77,2.34l-.92,2.52A2.49,2.49,0,0,0,91,95.36a2.52,2.52,0,0,0,1.49,1.15,2.57,2.57,0,0,0,3.08-1.74l1.23-3.36a5.1,5.1,0,0,0,0-4.43,2.5,2.5,0,0,0-2.16-1.24A2.61,2.61,0,0,0,92.48,87c.45-.61.22-.27.08-.13s-.19.16-.27.25c.35-.27.42-.32.21-.17l-.1.06-.32.2c-.45.27-.91.52-1.33.83a16.6,16.6,0,0,0-1.66,1.47l-.32.29c-.19.17.52-.36.06-.06a5.74,5.74,0,0,1-.78.4l.6-.25a11.12,11.12,0,0,1-2.41.57l.66-.09-.54.07a2.71,2.71,0,0,0-1.77.73,2.53,2.53,0,0,0-.73,1.77,2.57,2.57,0,0,0,.73,1.77,2.42,2.42,0,0,0,1.77.73Z" transform="translate(-73.5 -64.73)"/><path class="cls-5" d="M90.73,92.7a17.11,17.11,0,0,0,1.4,2A10.2,10.2,0,0,0,94,96.23l-.51-.39A6.36,6.36,0,0,1,94.54,97l-.39-.51.4.54a1.83,1.83,0,0,0,.65.7,1.89,1.89,0,0,0,.85.45A2.57,2.57,0,0,0,98,97.89a2.5,2.5,0,0,0,1.15-1.5,2.43,2.43,0,0,0-.25-1.92,15.86,15.86,0,0,0-1.3-1.64A12.05,12.05,0,0,0,96,91.52l.51.39a5.45,5.45,0,0,1-.95-1l.39.5a13.24,13.24,0,0,1-.85-1.26A2.62,2.62,0,0,0,93.55,89a2.57,2.57,0,0,0-1.92.25,2.51,2.51,0,0,0-.9,3.42Z" transform="translate(-73.5 -64.73)"/></svg>